<?xml version="1.0" encoding="utf-8"?>
<!-- Generator: Adobe Illustrator 15.0.0, SVG Export Plug-In . SVG Version: 6.00 Build 0)  -->
<!DOCTYPE svg PUBLIC "-//W3C//DTD SVG 1.1//EN" "http://www.w3.org/Graphics/SVG/1.1/DTD/svg11.dtd">
<svg version="1.1" id="Layer_1" xmlns="http://www.w3.org/2000/svg" xmlns:xlink="http://www.w3.org/1999/xlink" x="0px" y="0px"
	 width="109.375px" height="17.5px" viewBox="0 0 109.375 17.5" enable-background="new 0 0 109.375 17.5" xml:space="preserve">
<g>
	<path fill="none" d="M9.56,8.682c0-0.922,0.022-2.654,0.067-3.397C9.2,5.938,8.772,6.5,7.738,7.737L7.513,8.008
		C6.68,9.02,6.027,9.739,5.442,10.303c0.788-0.045,1.868-0.068,2.948-0.068h1.17V8.682z"/>
	<path fill="#FF4C00" d="M9.56,16.625h3.915v-2.7H15.5v-3.69h-2.025V0.875h-4.32l-8.482,9.742v3.195H9.56V16.625z M8.39,10.234
		c-1.08,0-2.16,0.023-2.948,0.068C6.027,9.739,6.68,9.02,7.513,8.008l0.225-0.271C8.772,6.5,9.2,5.938,9.627,5.285
		C9.583,6.027,9.56,7.759,9.56,8.682v1.553H8.39z"/>
	<path fill="#FF4C00" d="M23.555,13.273c-1.732,0-3.195-0.653-4.478-1.644l-2.25,2.835c1.688,1.485,3.96,2.408,6.638,2.408
		c4.275,0,6.908-1.599,6.908-5.243c0-2.003-1.283-3.061-2.745-3.397c1.08-0.518,2.093-1.35,2.093-3.083c0-3.33-2.52-4.522-6.3-4.522
		c-2.745,0-4.635,0.923-6.098,2.048l2.07,2.834c1.215-0.876,2.385-1.35,3.916-1.35c1.552,0,2.182,0.45,2.182,1.283
		c0,1.035-0.45,1.327-1.822,1.327h-2.025v3.398h2.272c1.598,0,2.228,0.404,2.228,1.507C26.142,12.755,25.377,13.273,23.555,13.273z"
		/>
	<path fill="#00567C" d="M42.162,5.172c0,1.283,0.022,3.375,0.135,4.073c-0.338-0.653-1.733-2.745-2.453-3.713l-3.465-4.657h-3.848
		v15.75h4.185V11.81c0-1.282-0.022-3.375-0.135-4.072c0.405,0.697,1.755,2.723,2.452,3.69l3.758,5.197h3.555V0.875h-4.185V5.172z"/>
	<path fill="#00567C" d="M48.439,8.772c0,5.243,2.992,8.101,7.267,8.101c4.275,0,7.313-2.903,7.313-8.146
		c0-5.244-2.993-8.101-7.268-8.101C51.476,0.627,48.439,3.529,48.439,8.772z M58.497,8.772c0,2.835-0.99,4.297-2.745,4.297
		c-1.756,0-2.791-1.507-2.791-4.342s0.99-4.298,2.745-4.298S58.497,5.938,58.497,8.772z"/>
	<path fill="#00567C" d="M78.297,6.005c0-3.735-2.453-5.13-6.143-5.13h-7.043v15.75h4.299v-5.31h1.754l2.565,5.31h4.882l-3.15-6.008
		C77.194,9.83,78.297,8.367,78.297,6.005z M71.974,7.872H69.41V4.43h2.632c1.372,0,1.912,0.698,1.912,1.688
		C73.954,7.242,73.393,7.872,71.974,7.872z"/>
	<polygon fill="#00567C" points="83.99,16.625 88.356,16.625 88.356,4.678 92.765,4.678 92.765,0.875 79.58,0.875 79.58,4.678 
		83.99,4.678 	"/>
	<polygon fill="#00567C" points="104.218,0.875 104.218,6.612 99.312,6.612 99.312,0.875 94.856,0.875 94.856,16.625 99.312,16.625 
		99.312,10.415 104.218,10.415 104.218,16.625 108.673,16.625 108.673,0.875 	"/>
</g>
</svg>
